<?xml version="1.0" standalone="no"?>
<!DOCTYPE svg PUBLIC "-//W3C//DTD SVG 20010904//EN"
 "http://www.w3.org/TR/2001/REC-SVG-20010904/DTD/svg10.dtd">
<svg version="1.0" xmlns="http://www.w3.org/2000/svg"
 width="1000.000000pt" height="1000.000000pt" viewBox="0 0 1000.000000 1000.000000"
 preserveAspectRatio="xMidYMid meet">
<metadata>
Created by potrace 1.11, written by Peter Selinger 2001-2013
</metadata>
<g transform="translate(0.000000,1000.000000) scale(0.100000,-0.100000)"
fill="#000000" stroke="none">
<path d="M3181 7350 c-333 -32 -632 -120 -909 -265 -600 -317 -979 -885 -1084
-1630 -20 -140 -17 -573 6 -713 76 -485 257 -848 573 -1152 134 -129 260 -220
423 -304 278 -143 514 -214 847 -252 178 -21 586 -15 742 11 380 61 755 218
1009 423 24 19 45 33 47 30 2 -2 21 -99 41 -216 l38 -212 128 0 128 0 0 745 0
745 -118 0 -118 0 -47 -143 c-94 -283 -213 -487 -386 -658 -192 -191 -378
-289 -661 -350 -92 -20 -133 -23 -335 -23 -200 0 -243 3 -332 22 -438 95 -729
351 -898 792 -101 260 -146 557 -146 950 0 472 65 814 216 1125 77 159 145
257 259 371 147 146 275 228 456 288 256 85 574 89 820 9 415 -134 721 -491
850 -990 l11 -43 109 0 c100 0 110 2 110 18 0 27 98 1280 104 1330 l6 43 -137
-3 -138 -3 -48 -160 c-27 -88 -51 -162 -53 -164 -2 -2 -43 19 -91 47 -305 174
-572 276 -839 318 -118 18 -451 26 -583 14z"/>
<path d="M6985 7350 c-247 -28 -524 -129 -698 -253 -78 -56 -211 -193 -264
-272 -144 -214 -208 -472 -183 -739 39 -407 265 -717 720 -986 161 -95 294
-157 613 -284 795 -317 953 -447 951 -786 0 -177 -49 -294 -174 -421 -80 -80
-153 -129 -264 -173 -269 -108 -641 -113 -931 -13 -348 120 -619 403 -740 772
-26 79 -65 242 -65 271 0 2 -47 4 -105 4 l-105 0 0 -37 c0 -53 69 -1247 76
-1310 l5 -53 64 0 63 0 53 158 c28 86 53 160 55 164 3 3 50 -24 107 -62 255
-170 467 -255 738 -294 123 -18 435 -21 574 -6 677 76 1196 450 1325 957 45
173 46 392 4 563 -80 319 -337 604 -760 838 -162 90 -376 191 -566 266 -93 36
-243 96 -335 132 -455 180 -634 321 -672 528 -50 272 76 501 344 626 251 118
597 110 853 -19 266 -134 488 -413 593 -746 l24 -75 108 0 c79 0 107 3 107 13
0 29 -50 991 -56 1075 l-6 93 -66 -3 -65 -3 -44 -120 c-24 -66 -46 -126 -48
-132 -3 -8 -37 8 -97 47 -202 131 -410 219 -616 261 -113 23 -392 33 -517 19z"/>
</g>
</svg>
